<?xml version="1.0" standalone="no"?>
<!DOCTYPE svg PUBLIC "-//W3C//DTD SVG 20010904//EN"
 "http://www.w3.org/TR/2001/REC-SVG-20010904/DTD/svg10.dtd">
<svg version="1.0" xmlns="http://www.w3.org/2000/svg"
 width="1200.000000pt" height="1298.000000pt" viewBox="0 0 1200.000000 1298.000000"
 preserveAspectRatio="xMidYMid meet">

<g transform="translate(0.000000,1298.000000) scale(0.100000,-0.100000)"
fill="#000000" stroke="none">
<path d="M6767 11420 c-88 -18 -192 -61 -248 -101 l-29 -20 -62 21 c-33 11
-105 28 -159 36 -169 25 -369 -9 -536 -91 -118 -58 -230 -164 -292 -276 -36
-67 -47 -78 -84 -92 -38 -15 -50 -15 -127 -2 -133 24 -255 2 -356 -63 -91 -59
-144 -132 -158 -218 -7 -38 -12 -43 -59 -65 -53 -25 -182 -137 -192 -167 -4
-15 -22 -17 -132 -17 -133 0 -191 -13 -348 -77 -27 -11 -60 -22 -72 -25 -12
-3 -46 -29 -77 -59 -48 -47 -56 -61 -62 -104 -5 -40 -13 -55 -45 -83 -40 -37
-53 -66 -47 -113 3 -27 -1 -31 -57 -53 -33 -13 -86 -26 -117 -28 -48 -4 -61
-1 -88 19 -27 20 -43 23 -118 23 -167 0 -269 -60 -279 -164 -7 -72 -13 -80
-29 -41 -19 43 -39 66 -86 96 -58 37 -137 64 -206 71 -53 5 -62 9 -56 22 23
55 9 132 -29 153 -12 6 -72 14 -134 16 -100 4 -120 2 -193 -22 -90 -29 -147
-66 -156 -102 -5 -20 -9 -21 -31 -13 -41 15 -132 9 -253 -17 -186 -40 -199
-43 -219 -54 -11 -5 -27 -10 -36 -10 -27 0 -248 -99 -300 -135 -61 -41 -85
-80 -85 -134 0 -60 18 -90 73 -117 26 -14 47 -30 44 -37 -2 -6 -25 -19 -50
-28 l-47 -17 0 25 c0 36 -51 83 -92 84 -70 2 -104 -4 -148 -26 -118 -60 -76
-195 60 -195 37 0 40 -2 30 -19 -12 -24 -13 -91 -1 -110 7 -10 2 -20 -17 -35
-21 -17 -38 -20 -83 -18 -32 2 -74 -2 -94 -9 -34 -13 -38 -12 -53 8 -30 38
-80 56 -140 51 -47 -4 -60 -10 -84 -37 -15 -17 -28 -41 -28 -54 0 -12 -9 -35
-20 -52 -43 -66 -16 -151 55 -175 31 -10 34 -14 24 -31 -33 -62 -27 -186 12
-240 12 -17 32 -51 46 -77 62 -116 194 -242 316 -301 26 -12 47 -27 47 -32 0
-10 133 -111 197 -149 23 -14 52 -41 65 -59 37 -55 73 -76 129 -76 50 0 64 -9
30 -20 -11 -3 -36 -24 -55 -45 -29 -32 -36 -48 -36 -80 0 -40 0 -40 -38 -40
-77 0 -162 -92 -162 -175 0 -44 31 -107 63 -128 118 -77 277 0 277 134 0 36 4
49 14 49 8 0 21 3 29 6 10 3 17 -3 21 -19 3 -13 25 -42 49 -64 35 -32 54 -41
95 -47 112 -15 222 35 247 112 2 9 25 25 49 35 25 10 64 35 88 56 30 26 56 40
85 43 58 8 132 47 149 80 8 15 14 45 14 66 0 53 21 70 42 34 8 -15 18 -39 22
-53 3 -15 22 -41 41 -58 31 -27 43 -31 94 -31 46 0 65 5 92 25 19 13 45 32 59
41 14 9 37 25 52 35 17 12 45 19 73 19 26 0 54 4 64 9 11 6 43 5 90 -2 62 -11
74 -17 91 -42 11 -17 20 -32 20 -36 0 -8 -189 -30 -330 -39 -136 -8 -193 -24
-279 -79 -144 -93 -251 -279 -251 -437 0 -19 -1 -34 -2 -34 -2 0 -57 14 -123
31 -78 20 -155 33 -221 36 -93 5 -106 3 -156 -20 -54 -24 -57 -28 -137 -166
-105 -181 -151 -278 -151 -317 0 -102 106 -248 330 -452 118 -108 328 -283
405 -337 24 -16 68 -50 99 -75 l55 -45 -32 -17 c-19 -9 -39 -23 -45 -31 -9
-11 -22 -12 -55 -6 -23 4 -100 8 -172 8 -173 1 -305 -31 -370 -89 -12 -11 -51
-23 -93 -29 -41 -6 -86 -18 -101 -26 -24 -12 -34 -12 -67 0 -108 37 -242 27
-350 -26 -74 -37 -94 -59 -94 -107 0 -48 37 -82 90 -82 36 0 40 -2 40 -25 0
-14 11 -37 25 -50 19 -20 34 -25 73 -25 l50 0 6 -52 c17 -149 77 -349 151
-503 29 -60 98 -204 153 -320 63 -130 120 -267 151 -360 l49 -150 94 -85 c51
-46 120 -112 153 -145 60 -60 61 -61 97 -190 20 -71 39 -143 43 -158 9 -43 48
-77 87 -77 24 0 52 14 103 53 39 28 95 65 126 81 l56 30 42 -33 c23 -19 71
-77 107 -131 35 -54 71 -101 80 -104 66 -25 117 22 163 152 33 92 33 93 53 75
11 -10 33 -46 48 -80 19 -42 39 -69 62 -84 l35 -22 -50 -66 c-103 -136 -113
-204 -50 -346 30 -70 153 -267 191 -308 83 -88 291 -70 668 57 l132 44 30 -67
c49 -107 70 -164 96 -268 26 -100 42 -144 140 -366 85 -193 102 -224 143 -252
45 -30 87 -32 130 -5 47 28 63 60 75 142 5 40 11 75 13 77 3 2 28 -21 58 -52
52 -54 54 -59 92 -198 56 -204 105 -298 176 -334 36 -19 122 -19 157 -1 62 33
88 79 121 221 37 157 70 255 86 255 8 0 15 -4 15 -9 0 -4 27 -39 61 -77 72
-82 83 -105 116 -249 28 -126 60 -211 166 -452 42 -94 86 -194 97 -222 52
-132 89 -181 137 -181 12 0 64 28 115 63 51 34 133 82 183 108 104 52 126 79
144 171 7 35 28 99 47 143 18 44 38 99 44 123 10 37 13 41 30 32 24 -13 76
-13 101 1 11 6 45 49 76 97 30 48 86 132 123 187 82 122 103 163 135 262 14
43 36 96 49 118 14 22 37 61 51 88 21 39 30 47 54 47 22 0 34 -8 50 -34 75
-121 247 -209 311 -158 14 11 78 91 142 179 112 153 207 263 227 263 9 0 34
36 175 253 34 54 62 87 70 84 46 -18 289 -90 376 -112 197 -50 341 -42 402 22
38 41 161 238 191 308 15 33 31 79 36 103 21 99 -35 202 -214 390 -87 92 -88
94 -54 88 45 -7 65 -9 118 -7 40 1 49 6 98 59 29 31 64 68 77 82 40 43 142
128 179 150 l36 21 21 -73 c37 -126 42 -142 66 -190 41 -82 66 -85 196 -24
222 104 204 99 260 80 62 -20 171 -20 243 0 130 38 252 203 285 385 12 67 10
102 -17 263 l-16 96 45 64 c25 35 53 89 62 122 10 33 37 99 62 148 25 49 44
102 44 120 0 55 62 186 160 341 51 81 97 147 102 147 17 0 100 85 119 122 23
45 26 169 5 208 -13 22 -12 27 15 58 41 46 40 102 -1 143 -25 26 -37 30 -82
30 -29 0 -71 2 -94 5 -34 5 -51 0 -96 -25 -50 -29 -62 -31 -150 -31 -82 0
-104 4 -153 26 -39 18 -82 29 -129 32 -89 6 -102 15 -70 47 16 16 24 35 24 58
0 30 7 40 56 77 70 55 84 75 84 123 0 53 -35 87 -90 87 -41 0 -169 -60 -216
-102 -16 -14 -28 -17 -57 -11 l-37 8 127 105 c161 132 365 335 426 421 51 73
77 134 77 183 0 39 -46 136 -151 317 -78 135 -84 142 -133 165 -40 19 -68 24
-130 24 -76 0 -259 -34 -345 -65 l-38 -13 -7 75 c-5 64 -21 117 -62 209 -4 8
9 9 48 2 97 -18 258 4 458 63 19 6 66 16 104 21 61 10 71 9 100 -8 24 -15 50
-19 116 -19 119 0 170 25 170 83 0 27 123 67 153 50 11 -5 56 -8 101 -6 71 3
88 8 141 39 44 26 62 43 69 66 8 27 16 32 63 43 58 13 155 59 189 91 13 12 35
19 63 19 64 0 186 58 229 109 19 23 15 85 -9 114 -11 15 -38 31 -59 37 -53 14
-60 30 -13 30 21 0 55 5 76 11 32 9 42 18 59 56 18 40 18 49 6 81 -20 53 -55
74 -125 74 -44 0 -73 -7 -111 -26 -54 -28 -65 -46 -60 -103 3 -35 1 -38 -29
-44 -17 -3 -48 -16 -67 -27 -21 -12 -38 -17 -41 -11 -15 23 -81 41 -136 36
-52 -5 -58 -3 -68 19 -25 55 -121 84 -217 64 -63 -13 -103 -44 -119 -91 -11
-31 -16 -34 -89 -50 -45 -10 -93 -28 -116 -44 -33 -23 -52 -28 -107 -29 -43
-1 -80 -9 -102 -20 l-34 -18 23 37 c28 46 31 131 6 169 -9 14 -16 28 -16 30 0
12 58 34 105 41 99 14 169 72 202 165 15 44 25 56 69 81 62 35 116 93 146 154
12 25 30 47 39 50 10 3 34 17 54 31 42 28 58 26 119 -15 22 -14 53 -34 70 -44
47 -28 49 -32 32 -65 -25 -48 -21 -128 7 -155 26 -26 27 -87 1 -87 -28 0 -70
-28 -82 -55 -42 -93 35 -166 157 -148 57 8 91 40 91 86 0 32 3 35 36 42 20 3
60 20 89 36 46 26 55 36 80 96 26 60 29 80 29 171 l1 104 33 17 c71 37 94 127
48 189 -21 29 -23 40 -18 97 6 79 -6 100 -82 151 -49 32 -84 46 -156 61 -14 3
-34 19 -45 36 -49 77 -222 143 -354 135 l-61 -3 0 30 c0 56 -30 158 -66 226
-63 119 -192 220 -319 251 -40 9 -56 20 -80 52 -48 64 -169 128 -297 159 -46
11 -48 13 -48 46 0 25 -9 42 -39 72 -36 37 -42 39 -97 39 -33 0 -65 -4 -73 -9
-9 -6 -30 -1 -60 12 -52 23 -201 34 -266 20 -36 -8 -48 -4 -140 42 -100 51
-218 85 -292 85 -29 0 -45 9 -87 48 -83 78 -239 141 -352 142 -25 0 -34 6 -44
30 -7 16 -18 35 -26 41 -8 7 -14 30 -14 59 0 30 -9 64 -25 95 -22 45 -23 49
-7 61 9 8 20 14 24 14 4 0 19 17 33 37 49 73 23 189 -53 226 -67 34 -165 22
-210 -25 -26 -29 -52 -89 -52 -123 0 -22 -4 -25 -35 -25 -28 0 -42 7 -66 34
-45 52 -109 70 -228 64 -55 -3 -112 -12 -134 -21 l-37 -16 -20 39 c-28 55 -84
82 -164 81 -68 -1 -96 -16 -133 -71 -31 -45 -32 -136 -2 -174 19 -24 19 -26 2
-26 -14 0 -22 15 -36 66 -38 145 -152 284 -290 353 -153 77 -308 102 -450 71z
m148 -132 c87 -11 134 -23 201 -53 62 -28 150 -91 187 -134 61 -73 102 -299
64 -352 -52 -71 -76 -114 -91 -163 l-17 -54 -67 0 c-37 -1 -96 -7 -132 -16
-58 -13 -72 -13 -130 1 -146 35 -233 24 -290 -37 -17 -17 -55 -36 -115 -54
-119 -37 -135 -52 -135 -131 0 -56 3 -64 33 -91 17 -17 59 -43 92 -59 51 -24
74 -29 159 -31 93 -3 101 -5 136 -33 l37 -29 29 19 c23 14 50 19 110 20 77 1
289 -22 299 -33 3 -3 8 -22 12 -42 7 -45 -18 -60 -48 -27 -23 25 -24 25 -52 9
-12 -6 -36 -11 -54 -10 -23 2 -41 -6 -66 -28 -19 -16 -40 -30 -46 -30 -6 0
-16 -11 -21 -25 -6 -15 -17 -25 -30 -25 -11 0 -20 -5 -20 -11 0 -7 -11 -9 -30
-5 -17 3 -41 1 -55 -4 -20 -8 -27 -5 -45 17 -11 14 -20 32 -20 39 0 20 -17 26
-32 11 -7 -7 -38 -25 -68 -40 -51 -24 -110 -68 -110 -82 0 -4 -20 -48 -45
-100 -37 -75 -50 -94 -72 -100 -35 -8 -119 -79 -136 -113 -8 -17 -20 -26 -30
-24 -9 2 -17 -1 -17 -6 0 -5 -9 -12 -20 -15 -11 -3 -20 -13 -20 -24 -1 -10
-19 -31 -41 -46 -23 -16 -38 -23 -33 -16 4 8 3 9 -4 5 -7 -4 -12 -13 -12 -20
0 -21 -27 -40 -36 -25 -5 8 -3 10 7 4 8 -5 11 -5 7 -1 -9 10 -23 8 -24 -4 -1
-5 -2 -15 -3 -21 -1 -8 -6 -7 -17 1 -8 8 -14 9 -13 4 3 -20 -1 -47 -7 -41 -4
4 -17 -5 -29 -19 -17 -20 -24 -23 -30 -13 -5 8 -5 11 0 7 7 -7 60 49 60 63 0
4 3 11 8 15 4 4 7 14 7 23 0 14 -2 14 -10 1 -8 -12 -10 -11 -7 5 1 11 6 25 10
32 8 13 5 93 -3 88 -3 -2 -12 11 -20 28 -23 52 -33 58 -84 48 -48 -9 -69 -21
-99 -58 -10 -13 -25 -23 -33 -23 -8 0 -14 -5 -14 -11 0 -5 -4 -8 -8 -5 -5 3
-23 -4 -40 -15 -38 -22 -42 -23 -42 -6 -1 11 -69 68 -112 94 -29 16 -73 -2
-105 -42 -23 -29 -29 -32 -57 -24 -53 15 -158 -28 -234 -95 -30 -27 -82 -103
-82 -120 0 -24 31 -27 64 -7 37 23 70 30 71 16 1 -5 4 -24 9 -41 l7 -31 47 14
c26 8 54 17 62 20 8 3 26 6 40 7 14 1 46 12 71 25 33 17 54 22 74 17 38 -10
94 -67 101 -103 5 -25 10 -29 33 -28 15 1 33 5 40 9 6 4 19 2 28 -6 11 -8 14
-8 10 -1 -5 8 -1 11 12 10 16 -1 18 -4 8 -16 -8 -10 -8 -13 -1 -8 7 4 17 1 23
-7 8 -10 6 -17 -8 -30 -15 -13 -20 -14 -24 -4 -3 8 -6 5 -6 -7 -1 -17 -3 -17
-11 -5 -8 12 -10 12 -10 -5 0 -11 -9 -26 -21 -33 -12 -8 -18 -9 -15 -3 4 7 1
8 -8 5 -9 -3 -13 -10 -10 -15 5 -8 -10 -13 -29 -10 -5 1 -6 -3 -2 -9 3 -5 1
-10 -4 -10 -6 0 -11 -7 -11 -16 0 -12 -6 -15 -21 -11 -16 4 -19 2 -15 -10 4
-11 2 -13 -9 -10 -8 4 -17 2 -20 -3 -3 -4 1 -11 7 -13 7 -3 1 -6 -13 -6 -26
-1 -65 -31 -40 -31 6 0 11 5 11 12 0 6 3 8 7 5 3 -4 -2 -16 -12 -27 -20 -22
-41 -27 -29 -7 5 8 3 8 -9 -2 -9 -7 -15 -16 -12 -20 4 -8 -59 -63 -105 -92
-14 -9 -49 -38 -78 -64 -30 -27 -64 -50 -75 -51 -12 -1 -25 -3 -28 -3 -4 -1
-10 -8 -13 -17 -4 -10 -2 -13 7 -9 6 4 3 -1 -7 -9 -11 -9 -26 -16 -33 -16 -8
0 -26 -8 -40 -17 -21 -14 -25 -14 -18 -3 5 8 -4 4 -20 -8 -17 -14 -31 -19 -33
-13 -2 6 -8 11 -13 11 -6 0 -8 -4 -4 -9 5 -8 -9 -23 -25 -27 -23 -5 -70 -27
-70 -33 0 -10 -56 -41 -64 -36 -3 3 -4 2 -2 -1 11 -15 -126 -125 -156 -126
-13 -1 -33 -10 -44 -20 -13 -12 -24 -15 -28 -10 -4 7 -19 6 -43 -1 -33 -10
-37 -9 -51 11 -8 12 -24 22 -35 22 -11 0 -25 8 -32 17 -11 15 -19 16 -65 5
-118 -27 -178 -12 -266 70 -49 46 -68 58 -74 48 -9 -14 -4 -34 17 -65 18 -27
17 -33 -17 -50 -37 -19 -40 -19 -40 4 0 35 -20 33 -73 -7 -73 -55 -105 -70
-187 -84 -61 -11 -80 -10 -138 5 -60 15 -71 15 -107 2 -22 -8 -51 -14 -64 -15
-13 0 -51 -14 -86 -31 -70 -34 -144 -45 -225 -32 -31 5 -61 8 -68 5 -16 -5
-15 -39 0 -44 23 -8 -67 -57 -132 -72 -69 -17 -120 -20 -120 -9 0 4 12 19 26
34 16 17 24 34 21 43 -9 23 -22 20 -62 -15 -87 -77 -281 -118 -400 -84 -102
29 -104 29 -111 10 -4 -10 -1 -27 6 -38 12 -19 8 -26 -43 -73 -54 -50 -123
-84 -173 -84 -27 0 -48 -24 -40 -46 9 -22 -26 -95 -60 -128 -42 -40 -85 -56
-154 -56 -54 0 -60 -2 -60 -21 0 -12 8 -23 20 -26 28 -7 25 -20 -14 -59 -40
-40 -72 -43 -110 -13 -52 41 -57 106 -10 128 34 15 31 46 -6 61 -90 37 -126
162 -70 241 18 24 21 39 16 77 -19 159 -18 186 5 247 28 76 146 198 229 238
l55 26 14 -35 c13 -33 42 -46 56 -24 8 13 -27 154 -39 159 -63 27 -60 139 4
141 10 0 31 32 54 79 45 92 174 236 205 228 10 -2 49 4 87 14 85 22 224 24
316 4 37 -7 97 -30 134 -51 48 -27 68 -34 77 -25 17 17 -8 54 -59 86 l-43 27
15 37 c8 20 24 51 35 69 11 20 17 42 13 56 -7 28 30 76 58 76 11 0 44 22 74
49 31 26 77 60 104 75 46 25 53 26 110 17 77 -13 150 0 202 34 21 14 42 25 47
25 6 0 41 23 78 51 81 61 157 100 237 123 54 16 61 16 99 1 61 -25 155 -30
198 -12 20 8 41 12 45 7 5 -4 47 -20 94 -34 164 -53 434 -53 544 -1 29 14 60
25 68 25 16 0 68 51 68 67 0 11 167 30 176 20 3 -3 -17 -12 -43 -21 -81 -27
-159 -106 -105 -106 10 0 27 7 38 15 10 8 27 15 37 15 10 0 16 4 13 9 -4 5 7
4 23 -2 23 -8 38 -7 77 9 49 20 70 44 38 44 -13 0 -11 4 9 20 14 11 35 20 46
20 54 0 165 72 182 117 6 17 14 23 25 19 25 -10 183 13 233 34 25 10 66 23 91
30 54 14 82 47 84 101 1 35 4 40 34 48 68 19 120 59 142 107 33 76 23 141 -34
202 -45 51 -93 66 -218 70 -97 3 -130 1 -185 -16 -38 -11 -83 -23 -100 -27
-18 -4 -35 -11 -39 -16 -3 -5 -23 -20 -43 -34 -43 -27 -71 -77 -71 -128 0 -20
-3 -42 -6 -51 -11 -28 -42 -18 -59 18 -12 24 -34 43 -78 67 -57 30 -71 34
-166 37 -74 3 -128 -1 -186 -13 -45 -9 -92 -15 -106 -13 -21 3 -18 7 31 40 72
46 136 68 237 78 89 9 103 14 103 34 0 24 -56 39 -120 32 -66 -8 -68 -5 -46
47 20 47 82 102 151 134 49 23 74 28 135 28 98 -1 167 -33 249 -117 82 -84
112 -68 61 33 -6 13 -28 38 -48 56 -20 17 -34 34 -31 37 17 17 122 26 179 16
35 -6 67 -7 76 -2 26 15 -14 52 -64 59 -23 3 -42 8 -42 10 0 21 99 163 135
193 9 7 22 28 30 46 14 35 48 59 70 50 8 -3 39 6 69 19 103 46 173 59 301 58
137 -1 239 -23 345 -75 78 -38 189 -145 253 -244 52 -82 80 -109 103 -100 48
18 -50 182 -188 311 -53 51 -67 69 -59 79 6 7 44 27 83 45 40 17 89 40 108 51
19 11 42 16 50 13 8 -3 47 -10 85 -15z m799 -214 c9 -8 16 -21 16 -28 0 -37
-72 -50 -90 -17 -15 30 -12 38 18 49 37 14 39 14 56 -4z m377 -113 c-9 -6 -10
-11 -2 -15 19 -12 1 -27 -22 -20 -19 6 -20 5 -8 -10 10 -11 10 -16 2 -16 -8 0
-10 -8 -6 -20 3 -11 2 -20 -3 -20 -9 0 -92 -117 -92 -130 0 -4 6 -13 14 -19
10 -8 20 -6 41 11 l27 21 -16 -31 c-9 -18 -24 -32 -34 -32 -9 -1 -28 -7 -41
-14 -19 -11 -30 -10 -65 1 -22 8 -48 21 -57 29 -29 26 -40 -3 -29 -73 15 -91
-14 -150 -87 -174 -29 -9 -40 -8 -69 7 -19 10 -34 22 -34 26 0 14 -31 9 -69
-11 -20 -10 -54 -24 -76 -31 -33 -11 -40 -10 -44 1 -7 23 -58 69 -76 69 -41 0
13 126 85 200 48 49 117 80 180 80 14 0 31 5 38 12 7 7 12 8 12 2 0 -11 64
-34 93 -34 8 0 27 20 40 43 32 54 96 113 151 138 41 19 176 28 147 10z m-2298
-462 c71 -24 103 -49 124 -98 17 -39 10 -83 -20 -125 -27 -38 -110 -76 -169
-76 l-46 0 29 -30 c23 -22 29 -35 24 -52 -10 -34 -50 -66 -93 -73 -20 -4 -59
-16 -87 -27 -33 -15 -80 -23 -140 -26 -88 -4 -90 -4 -73 15 20 22 14 67 -8 59
-7 -3 -16 -1 -18 3 -3 5 -23 5 -43 1 -21 -5 -62 -13 -92 -19 -30 -6 -66 -17
-80 -24 -15 -7 -57 -12 -99 -11 -40 0 -75 -3 -78 -8 -3 -4 -10 -6 -15 -3 -13
9 -50 -5 -44 -16 6 -8 -15 -13 -42 -10 -17 2 -52 -16 -82 -43 -13 -11 -21 -15
-17 -9 5 9 2 11 -8 7 -9 -3 -13 -11 -9 -17 3 -6 1 -7 -5 -3 -6 4 -22 1 -34 -6
-13 -6 -31 -11 -40 -9 -10 1 -18 -2 -18 -7 0 -5 -8 -9 -17 -8 -12 1 -18 -6
-18 -19 0 -19 7 -20 121 -20 105 0 121 -2 116 -15 -8 -25 -42 -58 -70 -68 -15
-6 -57 -22 -94 -36 -60 -23 -80 -26 -201 -26 -121 0 -144 3 -233 30 -54 17
-106 38 -116 47 -17 15 -21 15 -60 -3 -83 -37 -207 -9 -285 65 -57 55 -50 123
15 170 22 15 31 31 35 62 3 23 16 56 29 75 24 34 100 94 118 94 5 0 38 11 72
24 190 73 325 93 402 58 32 -14 50 -16 100 -9 34 5 75 13 92 18 17 5 48 9 70
9 21 1 68 7 104 15 94 21 190 19 257 -5 62 -22 118 -68 127 -106 7 -25 17 -28
77 -18 l37 6 7 66 c4 36 13 75 21 87 28 43 97 89 143 96 26 4 69 14 96 23 73
21 165 20 238 -5z m1067 -4 c23 -8 57 -15 76 -15 18 0 36 -5 39 -11 4 -6 14
-7 24 -3 75 31 203 41 295 23 68 -14 102 -51 93 -99 -6 -28 -5 -29 58 -43 74
-17 148 -57 171 -92 26 -40 11 -90 -35 -121 -42 -27 -133 -45 -198 -38 -21 2
-95 9 -165 15 -70 6 -126 15 -123 19 2 4 44 6 92 4 48 -1 124 4 168 11 135 23
164 37 168 80 2 25 -4 32 -38 49 -37 19 -62 20 -358 21 -301 0 -319 -1 -332
-19 -19 -25 -4 -52 40 -73 65 -31 49 -59 -30 -56 -200 7 -221 10 -275 35 -71
33 -104 69 -104 112 0 50 30 74 129 101 68 19 94 31 114 54 24 28 94 59 132
61 9 0 36 -7 59 -15z m939 -144 c19 -12 2 -33 -44 -55 -29 -14 -39 -15 -57 -4
-13 7 -26 11 -30 10 -18 -5 -14 29 5 43 23 16 103 20 126 6z m482 -31 c10 -6
25 -23 33 -38 26 -51 -11 -98 -99 -128 -70 -24 -133 -53 -140 -64 -11 -17 -46
9 -61 45 -15 38 -18 93 -6 113 21 33 77 62 121 63 25 1 57 5 71 9 36 12 59 11
81 0z m1564 -55 c65 -27 90 -31 100 -15 9 15 82 12 114 -4 27 -14 51 -53 51
-82 0 -52 -55 -94 -123 -94 -17 0 -39 -8 -50 -17 -29 -27 -146 -22 -292 11
-128 28 -165 51 -165 100 0 27 42 76 66 76 9 0 29 11 46 25 26 22 38 25 111
25 64 0 95 -6 142 -25z m-1018 -138 c47 -25 76 -66 69 -100 -5 -24 -2 -28 24
-34 38 -7 70 -51 70 -93 0 -64 -91 -116 -161 -91 -21 7 -37 7 -50 1 -11 -7
-75 -9 -161 -6 -125 4 -145 7 -158 24 -13 16 -34 20 -115 24 -188 10 -284 62
-271 147 6 38 46 86 79 94 12 3 42 13 67 22 75 29 136 34 360 31 177 -2 221
-5 247 -19z m-881 -156 c-9 -14 -33 -14 -41 -1 -4 6 -1 18 6 26 11 13 14 13
27 0 8 -8 11 -19 8 -25z m-2643 -8 c-10 -29 -61 -73 -106 -94 -36 -16 -65 -18
-202 -18 -169 1 -176 12 -15 23 72 5 101 12 134 31 22 13 67 31 98 39 32 8 66
19 75 25 24 14 23 14 16 -6z m-518 -13 c-3 -5 -12 -10 -18 -10 -7 0 -6 4 3 10
19 12 23 12 15 0z m-2214 -18 c26 -22 22 -43 -12 -58 -88 -41 -321 -64 -340
-33 -14 22 -11 39 9 46 9 3 23 11 31 17 57 44 268 63 312 28z m4585 -9 c-10
-10 -19 5 -10 18 6 11 8 11 12 0 2 -7 1 -15 -2 -18z m3428 -75 c22 -7 44 -17
48 -23 25 -35 -18 -75 -92 -85 l-45 -6 33 -20 c32 -19 53 -55 35 -61 -6 -2
-19 -10 -29 -18 -18 -13 -18 -14 -1 -27 27 -20 12 -45 -41 -70 -45 -20 -49
-20 -147 -5 -55 9 -136 19 -180 22 -44 3 -96 10 -115 15 -19 4 -69 16 -110 25
-105 23 -150 37 -150 47 0 4 -8 8 -19 8 -10 0 -30 11 -45 25 -21 20 -25 29
-17 44 10 19 78 41 125 41 14 0 26 5 26 10 0 6 17 10 38 10 21 0 76 9 122 21
82 21 105 21 233 3 40 -6 50 -4 62 12 27 38 184 57 269 32z m-7205 -29 c53
-22 71 -49 71 -103 0 -28 -11 -45 -64 -99 -71 -72 -105 -84 -200 -73 -88 11
-148 87 -131 165 10 45 58 83 138 108 91 28 127 28 186 2z m4546 0 c0 -7 -8
-15 -17 -17 -18 -3 -25 18 -11 32 10 10 28 1 28 -15z m-5819 -33 c29 -30 37
-31 136 -11 60 13 80 13 104 4 18 -8 93 -13 194 -15 167 -2 251 -17 291 -50 8
-8 20 -14 26 -14 22 0 63 -61 63 -93 0 -39 -34 -90 -74 -110 -81 -40 -125 -56
-176 -62 -30 -4 -79 -16 -110 -27 -136 -48 -185 -58 -280 -57 l-85 1 62 18
c34 10 75 27 90 38 16 11 39 23 53 28 29 9 25 8 110 24 64 11 120 47 120 76 0
24 -135 38 -241 25 -86 -10 -230 -48 -262 -68 -7 -4 -14 -8 -17 -9 -3 0 -18
-6 -33 -12 -15 -7 -40 -15 -54 -18 -15 -4 -38 -13 -52 -20 -14 -8 -32 -14 -38
-14 -7 0 -13 -3 -13 -8 0 -9 -122 -77 -133 -74 -10 3 -75 -35 -96 -56 -13 -13
-12 -16 5 -29 26 -20 110 -12 200 18 38 12 71 26 74 29 3 3 19 16 37 28 28 20
43 22 109 20 l76 -3 -21 -27 c-14 -17 -36 -30 -59 -34 -20 -4 -46 -13 -57 -20
-11 -8 -34 -14 -51 -14 -43 0 -64 -9 -58 -25 7 -17 -33 -54 -66 -62 -14 -3
-29 -9 -35 -13 -23 -16 -108 -32 -145 -27 -33 4 -42 2 -50 -14 -7 -12 -21 -19
-41 -19 -21 0 -40 -11 -72 -43 -62 -64 -98 -85 -155 -93 -92 -12 -133 42 -77
102 14 15 25 27 25 28 0 1 -31 1 -69 2 -122 1 -157 52 -84 121 20 19 46 39 57
44 12 5 28 13 36 18 27 16 115 41 143 41 l27 0 -20 20 c-24 24 -17 43 30 82
l31 25 -50 7 c-92 12 -150 47 -151 90 0 20 86 106 106 106 7 0 25 6 41 14 15
8 39 19 53 24 14 6 45 19 70 29 66 29 232 75 315 88 22 4 58 11 80 15 72 15
134 6 161 -24z m8722 -242 c6 -2 12 -15 12 -28 0 -18 -7 -27 -22 -31 -56 -14
-128 -10 -153 9 -19 14 -19 15 -1 35 23 26 104 34 164 15z m-4022 -54 c26 -12
53 -19 59 -17 6 3 19 -1 29 -9 17 -12 17 -14 3 -29 -9 -9 -31 -46 -48 -83 -17
-37 -41 -77 -53 -90 -20 -22 -20 -23 -1 -17 15 5 17 5 6 -3 -21 -15 -57 15
-73 58 -17 48 -17 172 1 193 17 21 19 21 77 -3z m-5661 -134 c16 -12 17 -16 6
-30 -7 -9 -20 -16 -27 -16 -8 0 -14 -4 -14 -10 0 -5 -19 -10 -43 -10 -70 0
-92 40 -34 65 41 18 88 19 112 1z m1532 -55 l-32 -70 -85 6 c-218 14 -500
-100 -593 -240 -84 -127 -113 -213 -105 -314 l5 -53 -41 -20 c-23 -11 -62 -37
-87 -58 -32 -26 -65 -42 -102 -51 -61 -13 -56 -15 -160 49 -26 16 -60 33 -74
36 -49 13 -72 29 -62 45 13 21 11 93 -3 111 -24 32 -109 68 -157 68 l-47 0 4
38 c3 35 7 39 50 54 42 16 48 16 76 0 21 -11 53 -16 102 -16 63 1 80 5 137 38
36 20 74 48 84 62 20 27 107 63 154 64 34 0 153 37 203 62 21 11 48 30 60 43
12 12 37 27 56 33 77 23 144 52 162 72 15 16 31 20 84 20 70 0 192 24 236 46
26 13 127 41 155 43 7 1 -1 -27 -20 -68z m8469 39 c106 -29 163 -69 164 -116
0 -17 8 -23 33 -27 141 -23 237 -80 237 -141 0 -8 -13 -30 -29 -49 l-30 -33
34 -18 c18 -10 41 -33 51 -51 16 -31 17 -35 1 -59 -10 -14 -34 -30 -57 -37
-22 -7 -40 -17 -41 -23 0 -6 0 -54 0 -106 1 -89 -17 -185 -41 -217 -14 -18
-113 -63 -140 -63 -14 0 -33 9 -43 20 -18 19 -18 22 -2 56 21 42 21 44 2 44
-8 0 -24 9 -36 21 -23 23 -20 65 7 85 11 9 13 24 8 66 -6 51 -9 56 -39 67 -18
6 -50 25 -71 42 -22 17 -65 43 -96 56 l-57 25 6 68 c9 112 1 134 -61 164 -73
36 -91 58 -89 111 4 116 117 161 289 115z m-5241 -52 c-8 -20 -30 -29 -50 -22
-21 8 -19 20 7 44 18 17 24 18 35 7 8 -7 11 -21 8 -29z m165 8 c0 -3 -4 -8
-10 -11 -5 -3 -10 -1 -10 4 0 6 5 11 10 11 6 0 10 -2 10 -4z m-80 -69 c0 -2
-12 -14 -27 -28 -24 -22 -24 -13 0 19 8 11 27 17 27 9z m30 -10 c0 -2 -10 -12
-22 -23 l-23 -19 19 23 c18 21 26 27 26 19z m-50 -41 c0 -2 -8 -10 -17 -17
-16 -13 -17 -12 -4 4 13 16 21 21 21 13z m-45 -17 c4 -6 -3 -21 -16 -35 -21
-22 -23 -22 -35 -6 -20 26 -17 32 19 32 24 0 28 3 17 10 -9 6 -10 10 -3 10 6
0 15 -5 18 -11z m-5175 -154 c18 -22 6 -42 -28 -47 -57 -8 -90 20 -60 50 17
17 73 15 88 -3z m409 -4 c21 -13 5 -41 -23 -41 -27 0 -40 22 -23 39 13 13 27
14 46 2z m-147 -41 c20 -6 39 -18 41 -28 23 -82 17 -99 -46 -139 -36 -23 -53
-27 -118 -27 -81 -1 -104 9 -119 50 -8 19 -13 21 -42 15 -44 -10 -95 4 -109
30 -9 17 -7 25 12 45 29 31 105 34 135 6 18 -18 20 -18 54 9 30 24 91 45 140
48 8 0 32 -4 52 -9z m994 -82 c4 -6 -1 -17 -10 -24 -10 -7 -24 -32 -32 -56
-12 -36 -13 -37 -8 -8 4 19 8 47 9 63 1 15 3 29 4 32 2 10 30 5 37 -7z m-1078
-162 c20 -13 66 -50 101 -82 61 -57 67 -59 130 -65 90 -9 140 -18 178 -35 17
-8 36 -14 41 -14 20 0 147 -81 163 -104 4 -5 27 -4 54 3 26 7 49 10 52 7 2 -2
-9 -23 -26 -47 -55 -75 -80 -202 -61 -307 12 -70 6 -95 -16 -63 -8 11 -33 25
-55 31 -68 19 -139 -8 -139 -52 0 -19 -2 -19 -37 3 -74 45 -196 142 -200 160
-3 11 -11 19 -18 19 -8 0 -26 6 -42 14 -15 8 -40 19 -54 26 -22 10 -49 30 -94
68 -51 44 -145 173 -149 203 -1 13 -17 38 -34 56 -29 28 -32 37 -32 90 0 32 4
63 8 68 35 48 168 60 230 21z m310 7 c35 -22 41 -31 35 -53 -5 -17 -61 -40
-100 -40 -38 0 -80 21 -94 46 -12 24 -11 27 11 45 32 24 111 25 148 2z m8704
-284 c14 -46 14 -51 -1 -56 -62 -18 -103 -46 -117 -78 -18 -44 -18 -118 1
-154 13 -27 13 -29 -10 -39 -37 -17 -65 -70 -65 -123 0 -35 7 -56 30 -88 l31
-42 -36 -33 c-19 -18 -35 -40 -35 -49 0 -16 -20 -27 -49 -27 -32 0 -101 -58
-108 -91 -3 -16 -15 -35 -27 -41 -11 -6 -24 -17 -29 -24 -5 -9 -21 -6 -65 17
-80 41 -154 59 -250 59 -79 0 -82 1 -72 19 16 31 12 71 -11 107 -30 50 -92 65
-251 62 -112 -3 -125 -1 -113 12 24 28 45 79 45 110 0 37 -32 103 -60 123 -18
13 -17 15 25 50 25 21 56 58 71 82 21 37 31 45 55 45 16 0 46 7 66 15 35 15
41 14 89 -5 49 -20 66 -21 261 -17 202 4 212 5 271 32 43 19 80 47 127 96 58
59 72 69 103 70 21 1 51 5 67 9 17 4 32 8 35 9 3 0 13 -22 22 -50z m1319 -109
c5 0 9 -13 9 -29 0 -34 -32 -47 -75 -31 -50 19 -9 80 43 64 8 -2 18 -4 23 -4z
m397 -56 c26 -7 29 -30 5 -56 -19 -21 -102 -25 -121 -6 -41 41 36 83 116 62z
m-631 -96 c20 -17 15 -44 -12 -62 -36 -23 -137 -22 -159 3 -9 10 -14 25 -10
35 3 9 7 16 8 16 0 0 19 7 41 15 42 16 109 12 132 -7z m231 -84 c7 -2 12 -14
10 -26 -2 -15 -15 -25 -46 -36 -24 -8 -41 -16 -39 -18 2 -3 24 2 48 10 58 21
162 21 179 1 7 -8 20 -15 30 -15 10 0 23 7 30 15 20 24 112 20 135 -5 18 -20
18 -21 -11 -48 -45 -41 -99 -62 -156 -62 -40 0 -59 -6 -87 -27 -39 -30 -65
-47 -96 -62 -34 -16 -126 -41 -150 -41 -12 0 -36 -7 -51 -15 -16 -8 -42 -15
-59 -15 -51 0 -104 -12 -108 -24 -3 -8 23 -10 89 -8 58 2 94 0 94 -7 0 -5 -24
-21 -54 -36 -42 -20 -65 -25 -107 -23 -48 3 -54 5 -53 25 0 21 0 21 -40 6 -23
-9 -45 -20 -50 -25 -6 -4 -22 -8 -36 -8 -14 0 -31 -5 -37 -11 -6 -6 -48 -13
-94 -16 -46 -2 -93 -8 -104 -13 -51 -21 -166 -50 -220 -55 -33 -4 -69 -10 -80
-15 -46 -21 -127 -40 -275 -66 -77 -13 -107 -14 -162 -5 -37 6 -86 11 -110 11
-87 1 -102 52 -24 89 23 12 48 21 55 21 9 0 8 5 -3 16 -9 8 -16 21 -16 29 0
19 79 55 121 55 33 0 34 1 34 39 1 29 7 45 25 60 14 11 30 20 35 21 6 0 26 8
45 19 21 10 66 20 112 24 42 3 84 10 95 15 10 6 64 13 121 17 87 7 102 10 102
25 0 9 8 24 18 33 32 29 73 37 145 29 50 -6 67 -5 67 4 0 25 67 61 144 79 90
19 148 16 211 -14 22 -11 59 -25 83 -31 25 -6 42 -17 42 -25 0 -19 3 -19 44 3
l34 18 -34 19 c-19 10 -34 24 -34 30 0 39 113 63 188 39z m226 10 c25 -10 19
-31 -15 -44 -24 -10 -35 -10 -54 0 -13 7 -21 18 -18 26 7 19 57 30 87 18z
m-1317 -142 l58 -6 -50 -7 c-27 -3 -69 -10 -92 -14 l-43 -8 2 40 1 40 33 -19
c18 -11 59 -22 91 -26z m127 13 c-4 -8 -18 -15 -33 -15 l-26 1 30 14 c17 7 31
14 32 14 1 1 0 -6 -3 -14z m-8813 -11 c35 -31 -10 -70 -50 -45 -12 8 -13 14
-3 35 13 30 28 33 53 10z m7119 -138 c0 -2 -7 -6 -15 -10 -8 -3 -15 -1 -15 4
0 6 7 10 15 10 8 0 15 -2 15 -4z m-6300 -51 c0 -32 -41 -71 -82 -80 -16 -4
-31 -5 -33 -3 -3 2 1 20 7 40 9 30 17 37 57 50 25 8 47 16 49 17 1 0 2 -10 2
-24z m6710 9 c39 -6 64 -34 55 -63 -3 -10 -26 -26 -53 -36 -26 -9 -56 -20 -67
-24 -73 -29 -178 -49 -300 -58 -79 -5 -137 14 -150 52 -9 25 -7 31 22 54 33
26 128 57 218 70 62 9 228 12 275 5z m-7428 -118 c15 -35 4 -56 -30 -56 -72 0
-67 76 6 79 7 1 17 -10 24 -23z m2118 -60 l0 -54 -40 21 c-42 23 -44 26 -32
43 5 9 58 42 70 44 1 0 2 -24 2 -54z m-554 -11 c3 -14 22 -39 41 -55 l35 -31
-29 6 c-20 5 -24 4 -14 -3 8 -6 34 -10 59 -10 25 0 51 -7 60 -15 21 -19 98
-35 88 -18 -4 6 -16 11 -26 11 -10 0 -22 5 -25 10 -4 6 6 10 24 10 16 0 42 10
58 24 39 32 86 41 123 23 16 -9 43 -18 60 -22 26 -6 90 -67 90 -87 0 -4 -12
-20 -27 -37 -27 -29 -31 -30 -133 -33 -58 -1 -147 -2 -199 0 l-94 2 -31 37
c-70 85 -146 150 -200 174 -30 13 -56 27 -56 32 0 4 43 7 95 7 92 0 95 -1 101
-25z m7444 -25 c6 -11 8 -25 5 -30 -16 -26 -165 -23 -165 4 0 19 60 45 107 45
33 1 45 -4 53 -19z m-7695 -5 c127 -33 225 -117 288 -245 30 -62 32 -71 32
-181 0 -113 -1 -116 -38 -193 -26 -52 -35 -81 -29 -89 5 -7 15 -28 21 -48 10
-32 17 -38 49 -44 49 -9 108 -48 127 -85 8 -16 18 -49 21 -72 l6 -43 186 -90
c174 -84 331 -164 747 -380 361 -187 901 -491 953 -536 l33 -29 -26 0 c-14 0
-56 15 -94 34 -54 28 -82 35 -134 37 -69 2 -112 -14 -85 -33 8 -6 0 -7 -22 -2
-19 3 -42 12 -50 18 -18 15 -89 36 -120 36 -12 0 -39 9 -59 19 -31 17 -65 31
-81 36 -31 8 -87 29 -94 36 -13 12 -29 11 -21 -1 9 -15 -11 -12 -63 9 -49 21
-155 35 -167 23 -4 -4 -11 -7 -17 -7 -6 0 -16 -9 -22 -20 -6 -11 -14 -22 -18
-25 -3 -3 -10 -18 -13 -33 -4 -15 -9 -27 -11 -27 -4 0 -446 230 -452 235 -2 2
24 3 57 3 33 0 66 4 73 8 7 5 20 9 28 11 8 1 16 7 18 13 2 5 8 7 14 4 6 -4 6
2 -1 14 -7 14 -8 23 -1 27 12 7 -8 40 -69 115 -50 61 -171 183 -171 173 0 -4
-6 2 -14 12 -8 12 -19 16 -31 12 -12 -5 -16 -3 -12 7 4 10 0 12 -15 8 -13 -3
-19 -1 -15 5 4 6 -3 13 -14 16 -12 3 -18 10 -14 16 3 6 -1 11 -10 11 -10 0
-13 -5 -9 -12 4 -8 3 -10 -2 -5 -9 9 -10 13 -13 43 -1 11 -8 14 -23 10 -13 -3
-17 -3 -10 0 9 4 6 13 -12 31 -14 14 -23 29 -21 34 7 11 -50 52 -117 84 -62
29 -76 49 -54 74 34 39 -32 125 -96 124 -56 -1 -113 -9 -128 -18 -13 -7 -13
-6 -2 7 9 11 9 22 3 39 -9 23 -10 23 -11 -6 -1 -16 -5 -39 -9 -50 -6 -13 -4
-25 5 -35 8 -8 38 -44 66 -80 29 -36 60 -73 69 -83 9 -10 31 -38 49 -63 25
-36 28 -43 11 -32 -11 7 -21 16 -21 20 0 5 -5 8 -10 8 -6 0 -22 8 -37 17 -14
10 -33 18 -41 19 -8 2 -19 9 -24 16 -5 8 -6 3 -2 -14 3 -16 4 -28 1 -28 -3 0
-26 17 -50 38 -77 65 -85 70 -91 65 -3 -4 -6 -2 -6 4 0 6 -22 19 -50 29 -27
10 -50 22 -50 28 0 5 -3 7 -6 3 -8 -8 -64 13 -64 24 0 5 -9 9 -21 9 -21 0 -69
18 -121 46 -16 9 -28 13 -28 9 0 -3 -11 2 -25 11 -14 9 -25 13 -25 9 0 -4 -6
-3 -12 2 -19 15 -58 22 -58 11 0 -5 -5 -6 -12 -2 -7 4 -8 3 -4 -4 4 -7 4 -17
1 -22 -7 -11 -50 15 -97 58 -14 13 -31 21 -37 18 -6 -4 -11 -2 -11 3 0 6 -4
11 -10 11 -5 0 -10 -7 -10 -17 0 -15 -1 -15 -18 0 -24 22 -91 45 -122 43 -14
-1 -29 0 -35 3 -5 3 -19 7 -30 8 -44 5 -91 13 -115 18 -24 6 -24 6 -5 -9 l20
-16 -20 7 c-11 3 -37 20 -59 36 -31 25 -42 28 -56 19 -10 -6 -27 -8 -38 -5
-22 5 -57 -23 -57 -47 0 -8 -6 -16 -12 -16 -37 -4 -38 -4 -23 -14 12 -7 10 -9
-7 -7 -12 0 -21 4 -21 7 4 48 -29 37 -55 -18 -13 -27 -28 -47 -34 -45 -6 2 12
44 43 98 57 98 66 129 37 118 -14 -5 -13 0 6 31 13 20 21 39 18 42 -4 5 -93
-132 -126 -194 -20 -38 -5 -36 19 2 36 59 32 41 -8 -33 -35 -66 -36 -71 -20
-87 16 -16 20 -15 62 20 45 37 61 43 30 11 -26 -25 -2 -40 96 -60 159 -31 428
-132 535 -201 28 -18 129 -94 225 -169 96 -74 252 -190 345 -257 94 -66 174
-125 180 -129 6 -6 0 -16 -15 -26 -14 -10 -42 -33 -62 -51 l-37 -33 -43 24
c-24 14 -62 31 -84 37 -40 12 -42 14 -46 59 -5 55 -32 116 -66 154 -21 22 -34
27 -73 27 -41 0 -51 -4 -78 -35 l-31 -36 -38 26 c-44 30 -114 52 -197 60 -57
6 -62 4 -87 -22 -14 -15 -28 -39 -30 -51 -3 -22 -15 -14 -128 80 -69 57 -155
132 -192 167 -42 39 -73 61 -83 58 -20 -8 -180 164 -228 245 -20 34 -37 73
-37 85 0 23 47 113 161 309 38 64 69 105 85 112 65 30 263 2 472 -67 52 -17
96 -31 99 -31 2 0 1 21 -2 48 l-7 47 20 -30 c61 -95 169 -152 272 -142 110 10
199 76 247 186 63 142 -24 320 -180 366 -76 23 -116 19 -222 -20 -34 -12 35
43 88 70 101 54 215 68 322 40z m6450 -11 c28 -7 75 -29 105 -48 58 -38 63
-48 8 -18 -39 21 -110 43 -117 37 -2 -3 1 -11 7 -17 9 -9 0 -15 -39 -25 -125
-32 -219 -149 -219 -273 0 -59 38 -148 84 -198 80 -88 195 -115 308 -72 54 20
123 81 149 130 17 34 24 9 9 -36 -7 -19 -10 -37 -8 -39 2 -2 60 14 128 36 219
72 417 99 467 64 23 -16 139 -212 131 -221 -3 -2 -24 25 -48 61 -71 108 -105
130 -220 138 -59 4 -296 -63 -316 -90 -10 -13 -13 -14 -14 -4 0 20 -10 8 -15
-18 -4 -21 -35 -72 -35 -58 0 5 -7 2 -15 -6 -8 -9 -19 -17 -25 -19 -6 -2 -13
-12 -15 -23 -2 -11 -4 -22 -4 -25 -1 -3 -5 1 -9 8 -6 9 -17 5 -40 -18 -18 -16
-35 -30 -40 -30 -4 0 -13 -9 -20 -20 -7 -11 -21 -20 -31 -20 -10 0 -24 -7 -31
-15 -7 -8 -18 -15 -25 -15 -7 0 -18 -7 -25 -15 -7 -9 -19 -14 -27 -11 -7 3
-13 2 -13 -2 0 -8 -74 -42 -91 -42 -5 0 -8 -4 -5 -9 6 -10 -17 -22 -51 -26
-36 -5 -97 -27 -113 -41 -15 -12 -19 -14 -40 -14 -5 0 -9 -3 -9 -7 3 -21 -4
-30 -38 -48 -21 -10 -46 -26 -55 -34 -10 -8 -18 -11 -18 -8 0 4 -34 -11 -76
-33 -121 -65 -116 -60 -109 -102 4 -21 4 -38 1 -38 -3 0 -23 9 -43 20 -61 33
-84 22 -63 -30 18 -43 9 -55 -22 -31 -34 27 -40 26 -32 -4 6 -25 6 -25 -22
-10 -43 22 -54 19 -49 -15 2 -16 2 -30 0 -30 -1 0 -19 7 -39 15 -20 8 -36 11
-36 6 0 -13 -23 -8 -53 12 -25 16 -28 16 -57 -1 -16 -10 -28 -21 -25 -24 3 -3
-6 -4 -20 -3 -14 2 -23 -1 -19 -6 3 -5 -4 -9 -15 -9 -25 0 -25 3 -6 -49 8 -23
10 -39 5 -36 -6 3 -10 1 -10 -5 0 -6 -3 -9 -7 -7 -5 2 -21 -4 -38 -14 -48 -30
-79 -42 -97 -40 -10 1 -18 -2 -18 -7 0 -13 -76 -53 -84 -44 -4 4 -2 -5 5 -21
15 -34 8 -42 -29 -29 -20 7 -35 6 -50 -2 l-21 -11 25 -54 c14 -29 23 -55 20
-58 -3 -3 -25 4 -49 17 -34 18 -51 21 -81 16 -21 -4 -36 -10 -33 -12 9 -9 -31
-44 -49 -44 -9 0 -25 -10 -36 -22 -16 -19 -23 -21 -48 -11 -16 6 -30 8 -32 4
-9 -21 -188 -129 -188 -114 0 4 -7 -2 -16 -13 -8 -10 -12 -13 -8 -5 6 11 3 13
-12 6 -89 -38 -199 -61 -210 -44 -3 5 -12 5 -22 0 -26 -14 -144 -4 -161 14
-14 13 -13 15 7 15 12 0 22 5 22 11 0 8 5 7 15 -1 9 -7 18 -10 22 -6 3 3 2 6
-4 6 -5 0 -10 7 -10 15 0 8 4 15 8 15 4 0 23 14 41 30 18 17 38 30 44 30 6 0
19 10 30 22 10 12 13 18 7 14 -9 -5 -11 -2 -7 8 3 9 11 13 17 9 6 -3 7 -1 3 6
-8 12 -14 10 -61 -24 -44 -32 -313 -181 -362 -200 -22 -9 -56 -15 -75 -13
l-33 3 55 36 c49 32 217 127 650 366 222 123 616 327 933 484 l287 141 0 35
c0 76 69 153 151 167 31 5 38 12 57 58 l22 51 -38 76 c-36 73 -37 77 -37 190
0 110 2 120 32 183 94 199 308 293 528 232z m-468 -5 c-20 -15 -31 -18 -44
-10 -15 8 -12 11 17 19 52 15 55 14 27 -9z m-7464 -61 c44 -59 -22 -125 -81
-81 -41 30 -41 68 0 93 41 25 55 23 81 -12z m7352 -1 c9 -10 22 -17 28 -17 34
-1 38 -17 13 -54 -14 -21 -28 -46 -31 -56 -4 -12 -20 -20 -53 -24 -26 -4 -67
-13 -92 -21 -25 -7 -94 -16 -154 -20 -60 -4 -116 -10 -125 -15 -24 -13 -81
-31 -126 -41 -86 -17 -141 -31 -170 -41 -16 -5 -64 -16 -105 -23 -41 -8 -95
-18 -120 -24 -90 -21 -152 -9 -100 19 11 6 20 16 20 23 0 7 14 21 30 30 17 10
30 22 30 26 0 5 9 11 20 14 11 3 20 11 20 17 0 9 -4 9 -17 -1 -11 -10 -14 -10
-9 -1 4 7 2 12 -5 12 -8 0 -8 4 1 15 11 13 10 14 -4 9 -9 -3 -16 -2 -16 4 0 5
-10 13 -22 16 -22 6 -21 8 17 41 46 40 72 44 84 13 24 -63 104 -96 190 -79 31
5 78 13 105 17 38 4 58 14 83 39 18 18 33 42 33 53 0 14 10 24 32 31 17 6 39
18 49 27 29 26 68 31 226 29 126 -1 154 -4 168 -18z m-3712 -40 c14 -23 34
-51 46 -61 11 -10 23 -35 26 -55 4 -20 10 -46 15 -59 11 -27 66 -62 98 -62 12
0 22 -4 22 -10 0 -13 -169 -13 -274 0 -45 5 -121 15 -171 21 -49 7 -111 14
-137 16 l-46 5 18 31 c10 18 21 46 25 64 6 30 10 32 72 43 79 13 107 27 153
73 30 31 42 36 82 36 44 1 47 -1 71 -42z m-2427 -52 c1 -11 2 -32 3 -46 1 -14
17 -51 36 -83 37 -61 37 -60 -30 -71 -31 -5 -51 -19 -92 -62 -34 -34 -55 -50
-57 -41 -3 7 -10 37 -16 66 -7 32 -27 72 -47 99 -19 25 -32 51 -29 58 2 7 29
20 58 29 29 8 73 29 98 45 50 33 74 35 76 6z m1211 -21 c21 -7 58 -13 82 -14
39 0 48 -5 80 -41 19 -23 43 -64 52 -91 20 -61 46 -88 118 -127 65 -34 86 -55
95 -92 3 -15 24 -43 46 -63 39 -35 42 -36 118 -36 88 0 128 18 163 72 18 29
20 44 15 112 l-6 78 53 -5 c28 -3 131 -15 227 -27 96 -12 229 -24 295 -26 183
-6 208 -11 227 -45 26 -44 75 -69 135 -69 44 0 58 5 86 30 33 29 39 30 149 34
73 3 129 10 153 20 37 16 39 16 94 -15 90 -50 188 -127 212 -166 36 -59 49
-129 33 -191 -24 -94 -34 -104 -155 -168 -149 -77 -191 -112 -302 -251 -52
-65 -116 -133 -142 -152 -25 -18 -91 -48 -145 -66 -54 -19 -112 -40 -128 -49
-17 -9 -33 -16 -37 -16 -12 0 -3 37 16 65 39 58 69 125 69 155 0 21 -9 41 -29
61 -24 24 -38 29 -77 29 -43 0 -50 -4 -87 -45 -22 -25 -44 -45 -48 -45 -4 0
-21 25 -39 56 -59 104 -188 204 -264 204 -78 0 -115 -93 -62 -157 21 -25 106
-169 106 -179 0 -2 -14 -4 -31 -4 -21 0 -40 -10 -61 -30 -25 -26 -29 -37 -26
-70 l4 -40 -106 6 -105 7 -220 117 c-121 65 -381 198 -578 296 -308 154 -359
183 -363 204 -18 84 -67 144 -146 180 -29 14 -56 29 -59 33 -4 5 8 41 24 80
29 67 31 81 32 192 0 66 -4 133 -8 148 l-8 28 108 -6 c59 -4 145 -2 190 3 69
8 87 14 122 43 23 18 44 43 47 56 6 22 8 23 25 8 10 -10 35 -23 56 -31z m5603
15 c22 -18 67 -39 101 -49 35 -9 64 -21 66 -27 2 -5 -8 -22 -23 -38 -33 -35
-50 -75 -59 -137 -4 -27 -12 -48 -19 -48 -6 0 -24 16 -40 36 -36 46 -83 74
-123 74 -41 0 -47 12 -24 41 39 51 52 89 60 172 2 15 23 6 61 -24z m-6656 -83
c31 -54 39 -99 25 -150 -26 -100 -108 -154 -221 -148 l-27 2 30 45 c36 53 55
65 104 65 53 0 85 36 85 94 0 32 -7 52 -23 73 -13 15 -29 43 -35 60 l-11 33
25 -17 c14 -9 35 -34 48 -57z m6496 39 c-6 -15 -22 -41 -35 -57 -19 -22 -25
-41 -25 -74 0 -60 32 -94 88 -94 46 0 80 -24 111 -75 l20 -35 -27 -2 c-82 -4
-145 21 -185 74 -64 85 -53 197 26 271 35 32 42 30 27 -8z m-3634 -59 c72 -24
261 -114 269 -127 10 -15 -165 -34 -225 -24 -36 6 -41 10 -51 47 -9 33 -17 43
-50 56 -33 13 -39 20 -39 44 0 34 7 35 96 4z m3049 -154 c0 -120 2 -131 31
-199 17 -39 29 -75 25 -80 -3 -4 -29 -19 -58 -32 -82 -38 -143 -116 -143 -184
0 -20 -29 -37 -237 -139 -131 -65 -249 -120 -263 -124 -38 -10 -151 -69 -227
-118 -110 -71 -234 -130 -268 -127 -50 4 -165 -18 -251 -48 l-81 -28 5 76 c2
47 -2 100 -11 139 -14 59 -13 67 5 125 16 50 19 78 13 145 -7 91 -10 81 73
212 60 95 114 173 161 232 44 55 48 58 91 58 25 1 65 5 90 10 25 6 81 14 125
20 44 5 114 17 155 26 163 35 368 86 420 104 30 10 109 23 175 29 93 7 170 21
170 30 0 1 0 -56 0 -127z m1631 -443 c4 -8 25 -9 60 -5 47 5 54 4 54 -11 0
-10 -4 -23 -8 -29 -10 -14 -45 -27 -37 -13 4 6 1 9 -6 8 -8 -2 -38 3 -67 9
-30 7 -57 10 -61 8 -4 -3 -13 -1 -21 5 -11 6 -8 9 12 9 15 0 33 7 40 15 16 17
25 19 34 4z m-245 -70 c-14 -5 -31 -19 -38 -29 -15 -21 -39 -27 -45 -10 -2 6
-9 0 -17 -12 -13 -21 -13 -22 2 -9 23 18 21 3 -3 -36 -14 -24 -15 -31 -5 -26
8 3 15 0 15 -6 0 -6 -5 -11 -11 -11 -5 0 -8 -4 -4 -9 3 -5 -2 -16 -10 -25 -9
-8 -16 -19 -17 -23 0 -4 -4 -18 -8 -29 -5 -12 -7 -33 -6 -48 2 -15 -1 -29 -6
-32 -5 -3 -7 -12 -4 -20 3 -8 -1 -20 -8 -26 -9 -9 -11 -20 -5 -35 5 -14 5 -23
-1 -23 -18 0 -10 -20 8 -20 15 -1 15 -2 -3 -16 -12 -10 -14 -14 -5 -12 8 3 20
-2 26 -10 9 -12 5 -21 -20 -42 -68 -59 -359 -281 -365 -278 -3 2 -33 16 -65
32 -44 23 -76 30 -135 34 l-76 4 4 50 c2 41 -1 54 -20 74 -30 32 -112 34 -145
3 -13 -12 -24 -16 -28 -11 -3 6 58 57 136 114 79 56 215 159 303 227 128 100
179 133 255 166 145 64 228 89 244 76 11 -9 15 -7 19 9 4 14 13 20 34 19 l28
0 -24 -10z m-6965 -540 c118 -56 212 -104 209 -107 -3 -3 -35 -13 -72 -22 -66
-17 -66 -17 -87 5 -12 12 -93 73 -181 135 -88 62 -164 117 -170 122 -15 14 61
-20 301 -133z m6084 138 c0 -2 -40 -32 -90 -67 -49 -35 -90 -67 -90 -70 0 -3
-20 -4 -44 -2 -38 3 -49 0 -70 -22 -15 -14 -26 -36 -26 -50 0 -17 -10 -31 -33
-45 -18 -11 -41 -29 -51 -40 -17 -19 -18 -19 -67 17 l-50 37 123 60 c116 57
390 185 396 185 1 0 2 -1 2 -3z m-3950 -107 c-11 -22 -23 -40 -25 -40 -3 0 4
18 15 40 11 22 23 40 25 40 3 0 -4 -18 -15 -40z m-234 -69 c49 -22 62 -39 38
-48 -11 -4 -36 4 -66 20 -26 15 -55 27 -63 27 -8 0 -15 5 -15 10 0 16 62 11
106 -9z m-2539 -74 c79 -47 55 -45 -29 3 -40 23 -62 38 -48 35 14 -4 48 -21
77 -38z m237 -53 c4 -14 1 -28 -10 -39 -24 -24 -34 -4 -33 70 l0 60 18 -35
c10 -19 21 -45 25 -56z m6325 -11 c13 -46 14 -113 2 -113 -9 0 -71 178 -71
202 1 24 59 -50 69 -89z m-3834 50 c-16 -2 -54 -8 -83 -12 -29 -5 -50 -5 -45
0 11 10 50 16 108 16 28 0 37 -2 20 -4z m848 1 c39 -7 48 -19 20 -28 -10 -3
-79 -17 -153 -31 -74 -14 -146 -28 -160 -32 -46 -12 -5 22 61 52 83 37 161 50
232 39z m280 -21 c-7 -2 -19 -2 -25 0 -7 3 -2 5 12 5 14 0 19 -2 13 -5z m2837
-5 c-1 -20 -37 -95 -50 -103 -24 -15 -22 6 5 60 27 52 45 70 45 43z m-3911
-22 c-11 -11 -224 -86 -244 -86 -13 0 -33 9 -46 20 -22 18 -22 19 -5 20 11 0
27 6 35 14 9 8 39 19 66 24 50 10 202 16 194 8z m3276 -17 c70 -13 121 -37
154 -73 l25 -26 -22 -16 c-36 -25 -16 -35 56 -28 39 4 91 1 124 -5 53 -11 56
-14 45 -31 -9 -15 -9 -22 0 -31 9 -9 18 -7 40 8 15 11 57 32 93 46 178 70 350
58 433 -30 27 -29 27 -30 8 -48 -19 -17 -22 -17 -56 -1 -19 9 -39 15 -43 12
-4 -2 -14 -1 -21 3 -11 7 -42 4 -141 -14 -19 -3 -73 -17 -119 -32 -83 -25
-106 -25 -216 -6 -11 1 -83 4 -160 6 -77 2 -152 7 -167 11 -31 9 -53 54 -44
89 6 25 -2 32 -69 59 -34 13 -41 15 -107 24 -27 4 -48 10 -48 13 0 9 141 80
161 80 8 1 42 -4 74 -10z m371 -26 c-1 -1 -12 0 -24 4 -21 5 -21 6 -5 18 15
11 19 11 24 -3 4 -9 6 -18 5 -19z m-4023 7 c5 -4 7 -14 5 -22 -2 -10 -15 -7
-53 15 l-50 28 45 -7 c25 -3 49 -10 53 -14z m5050 -3 c-23 -37 -97 -127 -104
-127 -19 0 -6 21 48 79 56 60 72 74 56 48z m-165 -27 c-12 -16 -31 -30 -42
-30 -15 0 -11 7 20 30 49 37 50 37 22 0z m202 -35 c-29 -30 -56 -52 -59 -49
-5 6 98 104 109 104 2 0 -20 -25 -50 -55z m-4273 11 c21 -7 36 -17 33 -22 -3
-5 -50 -9 -105 -10 -88 -1 -125 -6 -210 -30 -58 -16 -65 -17 -59 -1 5 15 105
64 159 78 38 10 133 2 182 -15z m-2154 -15 c26 -12 45 -26 42 -32 -13 -20 26
-20 58 0 19 11 36 19 39 16 3 -3 20 0 38 7 32 11 41 7 167 -58 90 -47 133 -74
133 -86 0 -12 -6 -16 -20 -13 -13 3 -20 -2 -20 -12 0 -11 -7 -14 -25 -11 -14
3 -28 1 -31 -3 -3 -5 -18 -7 -35 -4 -16 3 -29 1 -29 -4 0 -5 -29 -8 -65 -6
-36 1 -65 -1 -65 -7 0 -5 -6 -6 -12 -1 -17 10 -67 10 -103 0 -16 -5 -50 -10
-75 -12 -25 -2 -52 -5 -60 -8 -17 -6 -101 -17 -180 -23 -125 -10 -176 -10
-187 -1 -7 5 -22 7 -32 4 -12 -3 -22 1 -25 10 -3 8 -10 11 -16 8 -6 -3 -13 1
-16 9 -3 9 -9 14 -13 12 -4 -3 -13 5 -20 16 -14 23 -11 23 102 2 37 -7 39 -6
35 17 -2 19 -13 27 -52 40 l-49 15 44 36 c51 41 152 94 207 108 63 16 210 5
265 -19z m174 21 c8 -5 3 -11 -13 -19 -27 -12 -47 3 -23 18 17 11 21 11 36 1z
m6297 -77 c-6 -16 -35 -35 -51 -35 -7 1 47 50 54 50 1 0 0 -7 -3 -15z m-7221
-20 c70 -18 148 -56 128 -63 -7 -2 -33 5 -56 17 -46 23 -145 34 -181 21 -11
-5 -38 -11 -58 -14 -21 -3 -44 -13 -52 -21 -8 -8 -21 -12 -29 -9 -8 4 -15 1
-15 -4 0 -9 -24 -21 -55 -28 -30 -6 -65 -25 -65 -35 0 -6 -7 -9 -15 -5 -8 3
-14 0 -12 -7 1 -7 -6 -11 -18 -9 -11 2 -29 3 -39 3 -15 0 -10 9 23 43 99 101
295 150 444 111z m7082 -56 c17 -7 37 -11 45 -10 11 2 12 0 3 -9 -8 -9 -16 -9
-29 -2 -12 7 -25 7 -37 0 -10 -5 -25 -7 -33 -4 -8 3 -12 2 -9 -4 3 -5 -11 -12
-32 -15 -21 -3 -56 -10 -78 -15 -67 -16 -159 -22 -185 -12 -23 9 -22 10 25 37
27 16 69 35 94 42 54 15 192 11 236 -8z m-7728 -59 c109 -15 108 -14 86 -50
-17 -30 -18 -30 -108 -30 l-91 0 -19 -111 c-16 -98 -21 -112 -42 -122 -25 -11
-72 -3 -148 27 -22 8 -54 15 -72 16 -17 0 -44 5 -59 10 -19 8 -30 8 -38 0 -5
-5 -19 -10 -30 -10 -27 0 -225 -124 -253 -158 -12 -15 -22 -22 -23 -15 0 6 -3
18 -6 26 -4 12 0 14 15 10 19 -5 20 -2 15 25 -3 16 1 54 10 85 22 75 91 139
183 167 86 26 97 26 82 -1 -22 -42 7 -39 44 5 44 53 133 100 227 120 81 18
127 19 227 6z m8533 -50 c0 -5 -5 -10 -11 -10 -5 0 -7 5 -4 10 3 6 8 10 11 10
2 0 4 -4 4 -10z m-421 -11 c56 -12 64 -18 50 -39 -8 -11 -12 -12 -15 -3 -3 7
-12 9 -19 6 -8 -2 -34 2 -57 11 -24 9 -60 18 -82 20 -21 3 -41 7 -44 10 -10
10 115 6 167 -5z m514 -10 c-11 -12 -29 -19 -39 -17 -16 3 -14 7 11 21 41 23
53 21 28 -4z m-9448 -19 c33 -5 77 -17 97 -26 l37 -17 -22 -17 c-16 -14 -28
-15 -52 -8 -39 12 -188 30 -240 29 l-40 -1 28 16 c24 13 83 29 122 33 6 0 37
-3 70 -9z m9363 -36 c29 -14 61 -38 72 -54 39 -54 18 -144 -35 -152 -15 -2
-21 3 -23 21 -3 18 -8 22 -28 18 -13 -2 -24 1 -24 6 0 6 -7 2 -15 -9 -14 -18
-14 -18 -8 4 6 24 -6 29 -25 10 -9 -9 -12 -9 -12 1 0 10 -3 11 -14 2 -15 -12
-46 -5 -46 11 0 5 -4 7 -9 4 -5 -3 -17 5 -27 19 -14 19 -21 22 -37 13 -17 -9
-19 -8 -13 7 6 16 4 16 -11 4 -15 -12 -16 -12 -10 3 5 13 0 19 -19 24 -16 4
-30 17 -36 35 -5 16 -14 26 -19 23 -5 -3 -9 0 -9 6 0 6 6 10 13 9 6 -1 19 1
27 4 27 11 63 14 161 16 84 1 101 -2 147 -25z m-8228 -59 c11 -13 35 -16 122
-14 98 1 130 9 96 22 -7 3 102 6 242 6 l255 1 -15 -127 -16 -128 -103 -3 c-80
-2 -109 1 -127 13 -18 11 -48 15 -131 13 l-108 -2 115 -5 115 -6 -169 -8
c-146 -7 -171 -6 -185 7 -10 9 -27 16 -38 16 -18 0 -21 -9 -27 -61 -4 -34 -5
-63 -3 -66 3 -2 8 22 12 54 6 51 9 59 28 60 13 1 17 -1 10 -5 -11 -7 -58 -260
-50 -268 2 -2 142 -4 310 -5 l307 -1 0 -27 c0 -31 -18 -186 -25 -218 l-5 -23
-315 0 -315 0 -5 -22 c-9 -41 -35 -217 -35 -238 0 -20 6 -20 319 -20 l320 0
-5 -32 c-3 -18 -11 -80 -17 -138 l-12 -105 -569 -3 -568 -2 6 27 c9 41 111
625 140 798 14 83 39 218 55 300 16 83 32 167 35 188 l7 37 168 0 c140 0 171
-3 181 -15z m158 8 c-26 -2 -71 -2 -100 0 -29 2 -8 3 47 3 55 0 79 -1 53 -3z
m1158 -66 c-4 -39 -11 -130 -17 -202 -5 -71 -16 -186 -24 -255 -8 -69 -21
-199 -30 -290 -8 -91 -18 -184 -21 -207 l-5 -43 242 0 241 0 -6 -77 c-4 -43
-9 -106 -12 -140 l-6 -63 -484 0 -484 0 5 38 c11 78 86 709 115 967 17 149 34
287 37 307 l5 37 226 1 225 0 -7 -73z m432 66 l-96 -4 -6 -67 c-7 -88 -16
-317 -9 -272 2 19 10 97 17 173 7 75 15 139 17 142 3 2 52 5 109 6 91 1 102 3
85 15 -17 12 -4 14 96 12 62 -1 99 -4 81 -6 -34 -4 -35 -22 0 -22 13 0 18 -5
15 -14 -3 -8 0 -19 7 -25 10 -8 13 -3 14 26 1 19 4 38 7 42 6 6 4 -55 -11
-276 l-7 -113 78 0 c60 0 83 -4 99 -17 21 -18 21 -18 4 3 -19 22 -23 99 -9
184 6 38 8 41 15 23 4 -13 5 -32 1 -42 -3 -11 -1 -22 5 -26 17 -10 12 71 -5
85 -16 13 -18 46 -9 128 l7 52 229 0 229 0 -5 -77 c-3 -43 -8 -150 -11 -238
-3 -88 -8 -199 -11 -247 l-7 -88 -156 -2 -156 -3 -17 -310 c-9 -170 -17 -327
-17 -347 l-1 -38 -240 0 -240 0 0 38 c0 20 5 89 10 152 5 63 12 147 15 185 3
39 10 124 15 190 5 66 10 123 10 128 0 4 -72 7 -160 7 l-161 0 5 33 c3 17 10
86 16 152 12 138 16 181 30 324 6 57 10 112 10 122 0 18 8 19 103 17 l102 -2
-97 -3z m2182 -118 l0 -125 -309 0 -310 0 -4 -22 c-5 -20 -5 -20 -4 2 l2 25
300 5 300 5 -310 3 -311 2 1 -25 c1 -13 9 -33 19 -44 14 -16 17 -36 15 -115
-1 -53 1 -99 3 -102 3 -2 143 -4 310 -4 l305 0 8 -363 c4 -199 8 -386 9 -414
l1 -53 -569 0 -569 0 7 77 c3 42 6 105 6 140 l0 63 320 0 320 0 0 140 0 140
-316 0 -316 0 6 183 c3 100 9 278 12 394 l7 212 533 1 534 0 0 -125z m624 -37
c3 -90 9 -219 11 -288 11 -285 16 -390 21 -490 3 -58 9 -174 12 -258 l7 -152
-242 0 -243 0 -2 158 c-1 86 -3 177 -4 202 0 25 -4 207 -8 405 -3 198 -9 411
-12 473 l-7 112 230 0 230 0 7 -162z m406 147 c9 -11 33 -15 90 -15 l78 0 7
-85 c4 -47 10 -87 13 -89 7 -4 4 159 -3 181 -3 8 -35 13 -92 16 l-88 3 96 2
96 2 2 -62 c1 -35 6 -97 11 -138 5 -41 12 -127 15 -190 3 -63 8 -133 10 -155
6 -45 35 -468 35 -502 0 -22 4 -23 85 -23 l85 0 -5 68 c-23 280 -37 458 -45
587 -6 83 -15 200 -20 260 -5 61 -10 120 -10 133 l0 22 224 0 224 0 5 -32 c4
-18 9 -71 12 -118 7 -94 112 -1142 118 -1177 l4 -23 -568 0 -569 0 0 38 c0 33
-9 210 -24 497 -3 50 -8 144 -12 210 -3 66 -7 136 -10 155 -2 19 -6 128 -10
243 l-7 207 120 0 c95 0 123 -3 133 -15z m1441 -112 l14 -128 78 -3 c42 -2 77
-4 78 -5 0 -1 8 -58 17 -127 l17 -125 158 -3 c122 -2 157 0 157 10 0 7 -4 40
-9 73 -5 33 -12 86 -15 118 l-6 57 76 0 c47 0 73 -4 69 -10 -3 -5 3 -10 14
-10 25 0 26 7 6 125 -8 50 -15 98 -15 108 0 16 16 17 194 17 193 0 194 0 199
-22 3 -13 15 -83 28 -157 13 -74 25 -129 27 -123 3 10 -35 285 -43 310 -3 9
-55 12 -215 12 -244 0 -221 18 -189 -146 11 -58 18 -109 15 -112 -9 -8 -15 16
-34 146 l-19 122 223 0 c203 0 223 -2 228 -17 3 -10 32 -173 66 -363 34 -190
86 -482 116 -650 30 -168 54 -308 54 -312 0 -5 -108 -8 -239 -8 -220 0 -240 1
-245 18 -3 9 -21 130 -41 267 -19 138 -37 256 -40 263 -5 13 -165 18 -165 5 0
-5 6 -48 14 -98 8 -49 17 -109 20 -132 l6 -43 -158 0 -158 0 -18 140 -18 140
-84 0 -83 0 4 -27 c10 -55 65 -492 65 -512 0 -21 -3 -21 -240 -21 -132 0 -240
3 -240 8 0 23 -91 889 -100 952 -12 88 -40 343 -40 371 0 18 10 19 228 19
l229 0 14 -127z m-7493 67 c-11 -17 -24 -20 -80 -20 -38 0 -68 2 -68 5 0 13
69 34 113 35 45 0 47 -1 35 -20z m3772 -2050 c0 -20 -7 -20 -505 -20 -278 0
-505 2 -505 4 0 2 -3 11 -6 20 -6 14 43 16 505 16 504 0 511 0 511 -20z m580
0 c0 -19 -7 -20 -215 -20 -208 0 -215 1 -215 20 0 19 7 20 215 20 208 0 215
-1 215 -20z m1018 3 c-3 -16 -23 -18 -221 -21 -177 -2 -217 0 -217 11 0 8 3
17 7 20 3 4 103 7 220 7 199 0 214 -1 211 -17z m1162 13 c0 -2 -3 -11 -6 -20
-5 -14 -59 -16 -503 -16 -274 0 -500 3 -504 6 -3 3 -3 12 0 20 4 12 86 14 509
14 277 0 504 -2 504 -4z m-2183 -103 c-3 -10 -5 -4 -5 12 0 17 2 24 5 18 2 -7
2 -21 0 -30z m590 -70 c-3 -10 -5 -4 -5 12 0 17 2 24 5 18 2 -7 2 -21 0 -30z
m570 5 c-3 -8 -6 -5 -6 6 -1 11 2 17 5 13 3 -3 4 -12 1 -19z m-2872 -28 c8
-16 15 -31 15 -34 0 -6 -55 -36 -64 -36 -6 0 -36 55 -36 65 0 5 54 32 67 35 1
0 9 -13 18 -30z m1312 8 c-3 -8 -6 -5 -6 6 -1 11 2 17 5 13 3 -3 4 -12 1 -19z
m-160 -10 c-3 -8 -6 -5 -6 6 -1 11 2 17 5 13 3 -3 4 -12 1 -19z m1550 -20 c-3
-7 -5 -2 -5 12 0 14 2 19 5 13 2 -7 2 -19 0 -25z m2142 -43 c0 -5 -13 6 -29
25 -17 19 -30 39 -30 45 0 5 14 -6 30 -25 16 -19 29 -39 29 -45z m-5628 38
c-5 -10 -44 -54 -86 -98 -70 -74 -74 -77 -53 -37 12 24 48 68 79 98 60 56 77
67 60 37z m3646 -15 c-3 -7 -5 -2 -5 12 0 14 2 19 5 13 2 -7 2 -19 0 -25z
m-3004 -33 l17 -36 -30 -10 c-16 -6 -30 -16 -30 -22 0 -7 -12 6 -25 28 l-25
40 33 17 c42 23 41 23 60 -17z m412 5 l64 0 11 -42 c6 -24 13 -51 16 -60 5
-16 20 -18 139 -18 l134 0 10 -37 c5 -21 11 -47 13 -58 3 -19 12 -20 273 -23
l270 -2 29 -213 c15 -116 34 -252 42 -302 8 -49 14 -93 14 -98 0 -4 -187 -6
-416 -5 l-416 3 -29 90 c-16 50 -29 91 -29 92 0 2 111 4 248 5 l247 3 -18 102
-19 103 -261 2 -262 3 -16 60 c-9 33 -38 132 -64 220 -47 157 -61 212 -49 188
4 -9 28 -13 69 -13z m763 13 c-75 -2 -201 -2 -280 0 -79 1 -17 3 137 3 154 0
218 -2 143 -3z m2329 0 c-20 -2 -52 -2 -70 0 -17 2 0 4 38 4 39 0 53 -2 32 -4z
m-1915 -27 c4 -6 8 -32 8 -58 l0 -48 140 0 140 0 0 -60 0 -60 60 0 60 0 2 53
2 52 3 -52 4 -53 275 0 274 0 0 60 0 60 129 0 c94 0 131 3 134 13 11 25 6 -35
-23 -283 -17 -140 -35 -303 -42 -362 l-12 -108 -178 0 c-137 0 -176 3 -173 13
2 6 6 96 10 200 l6 187 -64 0 c-64 0 -65 0 -71 -31 -3 -17 -6 -65 -6 -105 l0
-74 -120 0 -119 0 -3 103 -3 102 -72 5 c-39 3 -70 3 -68 -1 2 -3 6 -61 10
-130 3 -68 8 -157 10 -196 l5 -73 -174 0 c-158 0 -175 2 -180 18 -5 14 -96
814 -96 839 0 12 124 2 132 -11z m2313 -167 c-30 -101 -61 -204 -68 -229 l-13
-45 -106 -3 c-101 -3 -106 -4 -101 -23 5 -17 11 -19 42 -14 l37 6 23 -78 c13
-43 25 -85 28 -94 3 -11 -5 -20 -26 -27 -37 -13 -37 -13 -12 -85 l19 -56 -28
-10 c-27 -9 -29 -8 -35 21 -7 28 -9 30 -44 24 l-37 -6 -31 95 -31 94 35 12
c19 6 32 16 30 23 -2 6 -12 35 -21 64 l-18 53 -121 -3 -122 -3 -33 -160 c-18
-88 -35 -177 -38 -197 l-7 -38 -177 0 -177 0 13 88 c6 48 34 241 60 430 l48
342 137 0 137 0 -9 -37 c-18 -79 -16 -83 50 -83 38 0 61 4 64 13 11 25 6 -19
-7 -75 l-14 -58 73 0 72 0 12 60 12 59 137 3 136 3 16 55 16 55 64 5 c36 3 66
5 67 4 1 0 -22 -83 -52 -185z m-3605 111 c0 -9 -59 -44 -65 -38 -1 2 -10 17
-18 34 -16 32 -16 32 13 44 17 7 30 18 30 24 0 6 9 -4 20 -22 11 -18 20 -37
20 -42z m1710 55 c0 -12 -14 -15 -70 -15 -56 0 -70 3 -70 15 0 12 14 15 70 15
56 0 70 -3 70 -15z m420 0 c0 -12 -14 -15 -70 -15 -56 0 -70 3 -70 15 0 12 14
15 70 15 56 0 70 -3 70 -15z m407 -17 c-3 -8 -6 -5 -6 6 -1 11 2 17 5 13 3 -3
4 -12 1 -19z m-2692 -78 c20 -38 20 -37 -15 -55 -38 -20 -37 -20 -55 15 -19
38 -20 37 13 54 37 21 39 20 57 -14z"/>
<path d="M6157 10793 c-7 -13 5 -83 14 -83 12 0 12 77 0 85 -5 3 -12 2 -14 -2z"/>
<path d="M6236 10754 c-4 -9 -4 -19 -2 -21 8 -8 26 8 26 23 0 19 -16 18 -24
-2z"/>
<path d="M6070 10735 c0 -30 41 -77 48 -55 5 15 -27 80 -40 80 -4 0 -8 -11 -8
-25z"/>
<path d="M6020 9960 c-8 -5 -33 -10 -54 -10 -46 0 -115 -37 -141 -76 -16 -25
-16 -28 2 -52 25 -34 77 -47 123 -32 19 6 55 10 80 8 44 -3 45 -4 48 -41 4
-48 22 -44 40 9 17 49 12 159 -8 178 -20 19 -72 28 -90 16z"/>
<path d="M5483 9693 c-7 -2 -13 -9 -13 -15 0 -14 43 -6 48 10 4 12 -12 15 -35
5z"/>
<path d="M4686 9351 c-10 -11 -23 -18 -27 -15 -5 3 -9 -2 -9 -11 0 -9 5 -13
11 -9 8 5 8 1 0 -13 -15 -30 -6 -32 44 -9 34 16 45 27 45 44 0 12 -4 22 -9 22
-5 0 -16 2 -23 5 -8 3 -22 -3 -32 -14z"/>
<path d="M5795 9100 c-3 -6 1 -7 9 -4 18 7 21 14 7 14 -6 0 -13 -4 -16 -10z"/>
<path d="M3455 9046 c-19 -49 -17 -81 5 -81 9 0 17 14 21 35 3 19 10 47 14 63
13 47 -21 33 -40 -17z"/>
<path d="M3536 9037 c-13 -19 -16 -31 -9 -38 14 -14 35 15 31 43 -3 23 -3 23
-22 -5z"/>
<path d="M2440 8820 c0 -14 42 -70 52 -70 13 0 9 34 -8 58 -16 23 -44 30 -44
12z"/>
<path d="M2535 8820 c-7 -12 11 -40 26 -40 14 0 10 26 -5 39 -10 9 -16 9 -21
1z"/>
<path d="M2385 8800 c-6 -10 56 -43 64 -34 7 7 -31 44 -45 44 -7 0 -16 -5 -19
-10z"/>
<path d="M4483 8734 c-7 -18 42 -73 54 -61 8 9 -26 77 -39 77 -5 0 -11 -7 -15
-16z"/>
<path d="M2365 8730 c-3 -4 11 -15 31 -25 35 -17 64 -15 64 4 0 10 -12 14 -72
26 -10 2 -20 0 -23 -5z"/>
<path d="M4390 8709 c0 -22 79 -109 99 -109 21 0 11 23 -29 66 -22 24 -40 48
-40 54 0 5 -7 10 -15 10 -9 0 -15 -9 -15 -21z"/>
<path d="M9536 8067 c-28 -20 -18 -69 16 -81 51 -18 89 42 50 77 -22 20 -42
21 -66 4z"/>
<path d="M9130 7890 c-21 -40 12 -80 54 -64 22 8 31 50 16 69 -18 22 -57 19
-70 -5z"/>
<path d="M9542 7783 c2 -10 10 -18 18 -18 8 0 16 8 18 18 2 12 -3 17 -18 17
-15 0 -20 -5 -18 -17z"/>
<path d="M1836 6983 c-30 -44 -36 -74 -10 -53 16 14 47 80 40 87 -2 3 -16 -13
-30 -34z"/>
<path d="M3497 6423 c-4 -3 -7 -11 -7 -17 0 -6 5 -5 12 2 6 6 9 14 7 17 -3 3
-9 2 -12 -2z"/>
<path d="M7245 5791 c-3 -5 0 -13 6 -17 7 -4 9 -3 5 4 -3 5 0 13 6 15 9 4 10
6 1 6 -6 1 -14 -3 -18 -8z"/>
<path d="M7060 5600 c-12 -7 -10 -9 7 -7 12 0 19 5 17 9 -6 10 -6 10 -24 -2z"/>
<path d="M7108 5593 c7 -3 16 -2 19 1 4 3 -2 6 -13 5 -11 0 -14 -3 -6 -6z"/>
<path d="M3767 7289 c-72 -43 -13 -160 65 -130 61 23 48 133 -17 138 -16 2
-38 -2 -48 -8z"/>
<path d="M3452 7224 c-31 -21 -30 -69 2 -90 55 -35 114 39 70 87 -21 23 -42
24 -72 3z"/>
<path d="M4792 7108 c-7 -7 -12 -20 -12 -29 0 -43 72 -53 78 -11 6 42 -37 69
-66 40z"/>
<path d="M3564 7018 c-9 -28 20 -52 47 -37 11 5 19 14 19 19 0 42 -53 57 -66
18z"/>
<path d="M5080 7015 c-26 -32 13 -81 48 -59 34 22 22 74 -18 74 -10 0 -23 -7
-30 -15z"/>
<path d="M3802 6991 c4 -13 18 -16 19 -4 0 4 -5 9 -11 12 -7 2 -11 -2 -8 -8z"/>
<path d="M4022 6938 c-7 -7 -12 -21 -12 -33 0 -12 5 -26 12 -33 7 -7 21 -12
33 -12 12 0 26 5 33 12 7 7 12 21 12 33 0 12 -5 26 -12 33 -7 7 -21 12 -33 12
-12 0 -26 -5 -33 -12z"/>
<path d="M4302 6528 c-30 -30 9 -69 44 -43 15 11 17 17 8 32 -14 23 -36 27
-52 11z"/>
<path d="M9524 7293 c-16 -3 -20 -10 -16 -29 5 -29 18 -31 27 -4 3 11 11 20
16 20 5 0 9 5 9 10 0 6 -3 9 -7 9 -5 -1 -17 -4 -29 -6z"/>
<path d="M9440 7245 c0 -8 5 -15 10 -15 6 0 10 7 10 15 0 8 -4 15 -10 15 -5 0
-10 -7 -10 -15z"/>
<path d="M8362 7178 c-27 -27 0 -88 40 -88 19 0 48 32 48 53 0 38 -61 62 -88
35z"/>
<path d="M2116 5413 c-3 -10 -13 -70 -22 -133 -9 -63 -18 -118 -20 -122 -2 -4
-1 -9 4 -12 4 -2 18 56 31 130 l24 134 99 0 c64 0 97 4 93 10 -3 6 -50 10
-105 10 -85 0 -99 -2 -104 -17z"/>
<path d="M2472 5045 c0 -16 2 -22 5 -12 2 9 2 23 0 30 -3 6 -5 -1 -5 -18z"/>
<path d="M2462 4990 c0 -14 2 -19 5 -12 2 6 2 18 0 25 -3 6 -5 1 -5 -13z"/>
<path d="M3525 5420 c4 -6 53 -10 116 -10 l109 0 -1 -27 c0 -16 -4 -59 -8 -98
-5 -38 -6 -74 -2 -80 5 -10 28 139 30 198 l1 27 -126 0 c-81 0 -123 -4 -119
-10z"/>
<path d="M4510 5240 c0 -3 -2 -50 -5 -105 l-4 -100 9 80 c5 43 11 84 14 90 2
7 0 18 -5 26 -5 8 -9 12 -9 9z"/>
<path d="M4083 4985 c0 -22 2 -30 4 -17 2 12 2 30 0 40 -3 9 -5 -1 -4 -23z"/>
<path d="M5485 5420 c4 -6 162 -10 441 -10 l434 0 0 -42 c1 -54 11 -152 16
-157 2 -2 4 46 4 107 l0 112 -451 0 c-297 0 -448 -3 -444 -10z"/>
<path d="M6576 5128 c4 -90 8 -165 10 -167 2 -2 4 68 4 157 0 97 -4 163 -10
167 -7 4 -8 -48 -4 -157z"/>
<path d="M7181 5345 c2 -47 8 -90 13 -95 8 -6 10 18 8 76 l-3 84 33 1 c18 1
39 1 47 0 7 -2 10 2 6 8 -3 6 -29 11 -56 11 l-50 0 2 -85z"/>
<path d="M7795 5363 c4 -38 13 -115 20 -173 l14 -105 -5 95 c-2 52 -7 125 -11
163 l-6 67 109 1 c60 1 115 1 123 0 7 -2 10 2 6 8 -4 7 -54 11 -132 11 l-126
0 8 -67z"/>
<path d="M8226 5168 c9 -96 16 -101 12 -9 -1 40 -6 75 -10 77 -5 3 -5 -28 -2
-68z"/>
<path d="M7610 5081 c0 -5 5 -13 10 -16 6 -3 10 -2 10 4 0 5 -4 13 -10 16 -5
3 -10 2 -10 -4z"/>
<path d="M8243 5035 c0 -22 2 -30 4 -17 2 12 2 30 0 40 -3 9 -5 -1 -4 -23z"/>
<path d="M7826 5043 c-4 -9 -2 -21 4 -27 7 -7 10 -2 10 17 0 31 -5 34 -14 10z"/>
<path d="M7622 4965 c0 -16 2 -22 5 -12 2 9 2 23 0 30 -3 6 -5 -1 -5 -18z"/>
<path d="M9371 5134 c0 -11 3 -14 6 -6 3 7 2 16 -1 19 -3 4 -6 -2 -5 -13z"/>
<path d="M9377 5096 c-3 -8 0 -19 7 -25 10 -9 12 -6 8 14 -5 29 -8 31 -15 11z"/>
<path d="M9952 5065 c0 -16 2 -22 5 -12 2 9 2 23 0 30 -3 6 -5 -1 -5 -18z"/>
<path d="M9962 5010 c0 -14 2 -19 5 -12 2 6 2 18 0 25 -3 6 -5 1 -5 -13z"/>
<path d="M8451 5003 c0 -4 4 -17 9 -28 8 -19 9 -19 9 2 1 12 -3 25 -9 28 -5 3
-10 3 -9 -2z"/>
<path d="M3292 10162 c-12 -4 -38 -20 -57 -35 -32 -25 -35 -33 -35 -77 0 -71
21 -90 103 -90 141 0 187 26 187 105 0 59 -12 80 -51 94 -34 12 -110 13 -147
3z m143 -48 c58 -63 2 -124 -114 -124 -53 0 -62 3 -77 25 -23 35 -11 66 38 97
59 38 119 38 153 2z"/>
<path d="M2241 7568 c-11 -30 -3 -56 21 -69 43 -23 83 24 58 70 -15 30 -68 29
-79 -1z"/>
<path d="M1931 7346 c-21 -26 -9 -51 24 -51 27 0 30 3 30 30 0 23 -5 31 -21
33 -11 2 -26 -4 -33 -12z"/>
<path d="M1582 7238 c-18 -18 -15 -66 6 -77 43 -23 91 27 65 68 -13 20 -54 26
-71 9z"/>
<path d="M1410 7001 c0 -23 28 -35 46 -20 19 15 6 39 -22 39 -17 0 -24 -6 -24
-19z"/>
<path d="M1337 6332 c-33 -36 -8 -92 40 -92 25 0 53 30 53 57 0 46 -62 69 -93
35z"/>
<path d="M1672 6071 c-18 -11 -12 -51 10 -64 21 -14 48 7 48 38 0 30 -31 44
-58 26z"/>
<path d="M1174 5985 c-8 -19 3 -35 26 -35 19 0 30 17 23 38 -6 17 -42 15 -49
-3z"/>
<path d="M1190 5784 c0 -8 5 -12 10 -9 6 4 8 11 5 16 -9 14 -15 11 -15 -7z"/>
<path d="M10226 3478 c-44 -23 -94 -57 -113 -75 -36 -37 -37 -41 -24 -177 6
-71 4 -83 -16 -122 -36 -68 -31 -124 17 -205 88 -148 178 -161 215 -31 29 100
104 263 176 383 38 64 69 125 69 135 0 32 -38 84 -72 98 -114 48 -152 47 -252
-6z"/>
<path d="M2262 3060 c-72 -21 -87 -31 -109 -74 -21 -40 -11 -114 24 -184 45
-88 91 -110 166 -78 38 15 154 145 163 181 19 75 -48 147 -156 168 -14 3 -53
-3 -88 -13z"/>
<path d="M9348 3004 c-38 -24 -68 -46 -68 -47 0 -1 -9 -27 -20 -57 -25 -69
-25 -117 0 -155 11 -16 20 -39 20 -50 0 -11 16 -43 34 -70 19 -28 49 -76 65
-107 51 -94 100 -112 154 -55 58 61 74 116 88 298 14 193 10 214 -54 260 -33
24 -50 29 -96 29 -50 0 -64 -6 -123 -46z"/>
<path d="M3735 2175 c-14 -13 -25 -31 -25 -38 0 -8 -9 -34 -20 -58 -36 -80
-17 -169 42 -200 13 -6 38 -25 56 -40 45 -40 91 -39 162 4 62 38 100 92 100
146 0 41 -66 158 -106 190 -22 17 -41 21 -106 21 -70 0 -82 -3 -103 -25z"/>
<path d="M7583 1707 c-80 -80 -88 -105 -52 -150 11 -15 36 -60 55 -102 46
-100 62 -109 169 -102 105 6 128 20 166 100 38 81 37 116 -9 202 -36 67 -40
71 -102 97 -36 14 -85 27 -109 27 -42 1 -48 -3 -118 -72z"/>
<path d="M7084 1661 c-65 -16 -124 -79 -124 -130 0 -11 10 -32 23 -48 13 -15
31 -48 41 -73 24 -60 28 -65 99 -100 88 -44 110 -41 169 23 116 122 131 168
83 239 -48 70 -192 114 -291 89z"/>
</g>
</svg>
